mtllib EffFinLucarioMain.mtl

v 1.159111 -11.093330 0.000000
v 0.600000 -12.646244 0.000000
v 1.200000 -12.646244 0.000000
v 0.579555 -11.869787 0.000000
v 1.039230 -9.646245 0.000000
v 0.519615 -11.146245 0.000000
v 0.848528 -8.403605 0.000000
v 0.424264 -10.524924 0.000000
v 0.600000 -7.450094 0.000000
v 0.300000 -10.048169 0.000000
v 0.310583 -6.850691 0.000000
v 0.155291 -9.748466 0.000000
v 0.000000 -6.646245 0.000000
v 0.000000 -9.646245 0.000000
v -0.310583 -6.850690 0.000000
v -0.155291 -9.748466 0.000000
v -0.600000 -7.450092 0.000000
v -0.300000 -10.048168 0.000000
v -0.848528 -8.403605 0.000000
v -0.424264 -10.524924 0.000000
v -1.039230 -9.646245 0.000000
v -0.519615 -11.146244 0.000000
v -1.159111 -11.093330 0.000000
v -0.579555 -11.869787 0.000000
v -1.200000 -12.646244 0.000000
v -0.600000 -12.646244 0.000000
v -0.600000 -1500.000000 0.000000
v -1.200000 -1200.000000 0.000000
v -1.200000 -1500.000000 0.000000
v -0.600000 -1200.000000 0.000000
v 0.000000 -1500.000000 0.000000
v 0.000000 -1200.000000 0.000000
v 0.600000 -1500.000000 0.000000
v 0.600000 -1200.000000 0.000000
v 1.200000 -1500.000000 0.000000
v 1.200000 -1200.000000 0.000000
v -1.200000 -899.999939 0.000000
v -0.600000 -899.999939 0.000000
v 0.000000 -899.999939 0.000000
v 0.600000 -899.999939 0.000000
v 1.200000 -899.999939 0.000000
v -1.200000 -600.000000 0.000000
v -0.600000 -600.000000 0.000000
v 0.000000 -600.000000 0.000000
v 0.600000 -600.000000 0.000000
v 1.200000 -600.000000 0.000000
v -1.200000 -300.000000 0.000000
v -0.600000 -300.000000 0.000000
v 0.000000 -300.000000 0.000000
v 0.600000 -300.000000 0.000000
v 1.200000 -300.000000 0.000000
v 0.000000 -12.646244 0.000000

vt 0.000000 1.000000
vt 0.000000 1.000000
vt 0.000000 1.000000
vt 0.000000 1.000000
vt 0.000000 1.000000
vt 0.000000 1.000000
vt 0.000000 1.000000
vt 0.000000 1.000000
vt 0.000000 1.000000
vt 0.000000 1.000000
vt 0.000000 1.000000
vt 0.000000 1.000000
vt 0.000000 1.000000
vt 0.000000 1.000000
vt 0.000000 1.000000
vt 0.000000 1.000000
vt 0.000000 1.000000
vt 0.000000 1.000000
vt 0.000000 1.000000
vt 0.000000 1.000000
vt 0.000000 1.000000
vt 0.000000 1.000000
vt 0.000000 1.000000
vt 0.000000 1.000000
vt 0.000000 1.000000
vt 0.000000 1.000000
vt 0.000000 1.000000
vt 0.000000 1.000000
vt 0.000000 1.000000
vt 0.000000 1.000000
vt 0.000000 1.000000
vt 0.000000 1.000000
vt 0.000000 1.000000
vt 0.000000 1.000000
vt 0.000000 1.000000
vt 0.000000 1.000000
vt 0.000000 1.000000
vt 0.000000 1.000000
vt 0.000000 1.000000
vt 0.000000 1.000000
vt 0.000000 1.000000
vt 0.000000 1.000000
vt 0.000000 1.000000
vt 0.000000 1.000000
vt 0.000000 1.000000
vt 0.000000 1.000000
vt 0.000000 1.000000
vt 0.000000 1.000000
vt 0.000000 1.000000
vt 0.000000 1.000000
vt 0.000000 1.000000
vt 0.000000 1.000000

vn 0.000000 0.000000 1.000000
vn 0.000000 0.000000 1.000000
vn 0.000000 0.000000 1.000000
vn 0.000000 0.000000 1.000000
vn 0.000000 0.000000 1.000000
vn 0.000000 0.000000 1.000000
vn 0.000000 0.000000 1.000000
vn 0.000000 0.000000 1.000000
vn 0.000000 0.000000 1.000000
vn 0.000000 0.000000 1.000000
vn 0.000000 0.000000 1.000000
vn 0.000000 0.000000 1.000000
vn 0.000000 0.000000 1.000000
vn 0.000000 0.000000 1.000000
vn 0.000000 0.000000 1.000000
vn 0.000000 0.000000 1.000000
vn 0.000000 0.000000 1.000000
vn 0.000000 0.000000 1.000000
vn 0.000000 0.000000 1.000000
vn 0.000000 0.000000 1.000000
vn 0.000000 0.000000 1.000000
vn 0.000000 0.000000 1.000000
vn 0.000000 0.000000 1.000000
vn 0.000000 0.000000 1.000000
vn 0.000000 0.000000 1.000000
vn 0.000000 0.000000 1.000000
vn 0.000000 0.000000 1.000000
vn 0.000000 0.000000 1.000000
vn 0.000000 0.000000 1.000000
vn 0.000000 0.000000 1.000000
vn 0.000000 0.000000 1.000000
vn 0.000000 0.000000 1.000000
vn 0.000000 0.000000 1.000000
vn 0.000000 0.000000 1.000000
vn 0.000000 0.000000 1.000000
vn 0.000000 0.000000 1.000000
vn 0.000000 0.000000 1.000000
vn 0.000000 0.000000 1.000000
vn 0.000000 0.000000 1.000000
vn 0.000000 0.000000 1.000000
vn 0.000000 0.000000 1.000000
vn 0.000000 0.000000 1.000000
vn 0.000000 0.000000 1.000000
vn 0.000000 0.000000 1.000000
vn 0.000000 0.000000 1.000000
vn 0.000000 0.000000 1.000000
vn 0.000000 0.000000 1.000000
vn 0.000000 0.000000 1.000000
vn 0.000000 0.000000 1.000000
vn 0.000000 0.000000 1.000000
vn 0.000000 0.000000 1.000000
vn 0.000000 0.000000 1.000000

g polygon0
s 1
usemtl mat2
f 1/1/1 2/2/2 3/3/3
f 1/1/1 4/4/4 2/2/2
f 5/5/5 4/4/4 1/1/1
f 5/5/5 6/6/6 4/4/4
f 7/7/7 6/6/6 5/5/5
f 7/7/7 8/8/8 6/6/6
f 9/9/9 8/8/8 7/7/7
f 9/9/9 10/10/10 8/8/8
f 11/11/11 10/10/10 9/9/9
f 11/11/11 12/12/12 10/10/10
f 13/13/13 12/12/12 11/11/11
f 13/13/13 14/14/14 12/12/12
f 15/15/15 14/14/14 13/13/13
f 15/15/15 16/16/16 14/14/14
f 17/17/17 16/16/16 15/15/15
f 17/17/17 18/18/18 16/16/16
f 19/19/19 18/18/18 17/17/17
f 19/19/19 20/20/20 18/18/18
f 21/21/21 20/20/20 19/19/19
f 21/21/21 22/22/22 20/20/20
f 23/23/23 22/22/22 21/21/21
f 23/23/23 24/24/24 22/22/22
f 25/25/25 24/24/24 23/23/23
f 25/25/25 26/26/26 24/24/24
f 27/27/27 28/28/28 29/29/29
f 27/27/27 30/30/30 28/28/28
f 31/31/31 30/30/30 27/27/27
f 31/31/31 32/32/32 30/30/30
f 33/33/33 32/32/32 31/31/31
f 33/33/33 34/34/34 32/32/32
f 35/35/35 34/34/34 33/33/33
f 35/35/35 36/36/36 34/34/34
f 30/30/30 37/37/37 28/28/28
f 30/30/30 38/38/38 37/37/37
f 32/32/32 38/38/38 30/30/30
f 32/32/32 39/39/39 38/38/38
f 34/34/34 39/39/39 32/32/32
f 34/34/34 40/40/40 39/39/39
f 36/36/36 40/40/40 34/34/34
f 36/36/36 41/41/41 40/40/40
f 38/38/38 42/42/42 37/37/37
f 38/38/38 43/43/43 42/42/42
f 39/39/39 43/43/43 38/38/38
f 39/39/39 44/44/44 43/43/43
f 40/40/40 44/44/44 39/39/39
f 40/40/40 45/45/45 44/44/44
f 41/41/41 45/45/45 40/40/40
f 41/41/41 46/46/46 45/45/45
f 43/43/43 47/47/47 42/42/42
f 43/43/43 48/48/48 47/47/47
f 44/44/44 48/48/48 43/43/43
f 44/44/44 49/49/49 48/48/48
f 45/45/45 49/49/49 44/44/44
f 45/45/45 50/50/50 49/49/49
f 46/46/46 50/50/50 45/45/45
f 46/46/46 51/51/51 50/50/50
f 48/48/48 25/25/25 47/47/47
f 48/48/48 26/26/26 25/25/25
f 49/49/49 26/26/26 48/48/48
f 49/49/49 52/52/52 26/26/26
f 50/50/50 52/52/52 49/49/49
f 50/50/50 2/2/2 52/52/52
f 51/51/51 2/2/2 50/50/50
f 51/51/51 3/3/3 2/2/2
f 52/52/52 24/24/24 26/26/26
f 52/52/52 22/22/22 24/24/24
f 20/20/20 22/22/22 52/52/52
f 52/52/52 18/18/18 20/20/20
f 52/52/52 16/16/16 18/18/18
f 14/14/14 16/16/16 52/52/52
f 52/52/52 12/12/12 14/14/14
f 52/52/52 10/10/10 12/12/12
f 8/8/8 10/10/10 52/52/52
f 4/4/4 52/52/52 2/2/2
f 4/4/4 6/6/6 52/52/52
f 6/6/6 8/8/8 52/52/52

v 0.000000 -5.633461 0.000000
v 3.000000 -12.646244 0.000000
v 2.050000 -5.633461 0.000000
v 0.000000 -12.646244 0.000000
v -2.050000 -5.633461 0.000000
v 0.000000 -12.646244 0.000000
v 0.000000 -5.633461 0.000000
v -3.000000 -12.646244 0.000000
v 3.000000 -300.000000 0.000000
v 0.000000 -300.000000 0.000000
v 0.000000 -300.000000 0.000000
v -3.000000 -300.000000 0.000000
v 3.000000 -600.000000 0.000000
v 0.000000 -600.000000 0.000000
v 0.000000 -600.000000 0.000000
v -3.000000 -600.000000 0.000000
v 3.000000 -900.000000 0.000000
v 0.000000 -900.000000 0.000000
v 0.000000 -900.000000 0.000000
v -3.000000 -900.000000 0.000000
v 3.000000 -1200.000000 0.000000
v 0.000000 -1200.000000 0.000000
v 0.000000 -1200.000000 0.000000
v -3.000000 -1200.000000 0.000000
v 3.000000 -1500.000000 0.000000
v 0.000000 -1500.000000 0.000000
v 0.000000 -1500.000000 0.000000
v -3.000000 -1500.000000 0.000000

vt 4.877804 0.000932
vt 4.759294 0.999068
vt 4.877804 0.999068
vt 4.759296 0.000932
vt 0.122623 0.996723
vt -0.022757 0.003277
vt 0.122623 0.003277
vt -0.022757 0.996723
vt 4.006576 0.999068
vt 4.006578 0.000932
vt -1.016742 0.003277
vt -1.016742 0.996723
vt 3.253859 0.999068
vt 3.253859 0.000932
vt -2.010728 0.003277
vt -2.010728 0.996723
vt 2.501141 0.999068
vt 2.501141 0.000932
vt -3.004713 0.003277
vt -3.004713 0.996723
vt 1.748421 0.999068
vt 1.748421 0.000932
vt -3.998699 0.003277
vt -3.998699 0.996723
vt 0.995703 0.999068
vt 0.995703 0.000932
vt -4.992684 0.003277
vt -4.992684 0.996723

vn 0.000000 0.000000 1.000000
vn 0.000000 0.000000 1.000000
vn 0.000000 0.000000 1.000000
vn 0.000000 0.000000 1.000000
vn 0.000000 0.000000 1.000000
vn 0.000000 0.000000 1.000000
vn 0.000000 0.000000 1.000000
vn 0.000000 0.000000 1.000000
vn 0.000000 0.000000 1.000000
vn 0.000000 0.000000 1.000000
vn 0.000000 0.000000 1.000000
vn 0.000000 0.000000 1.000000
vn 0.000000 0.000000 1.000000
vn 0.000000 0.000000 1.000000
vn 0.000000 0.000000 1.000000
vn 0.000000 0.000000 1.000000
vn 0.000000 0.000000 1.000000
vn 0.000000 0.000000 1.000000
vn 0.000000 0.000000 1.000000
vn 0.000000 0.000000 1.000000
vn 0.000000 0.000000 1.000000
vn 0.000000 0.000000 1.000000
vn 0.000000 0.000000 1.000000
vn 0.000000 0.000000 1.000000
vn 0.000000 0.000000 1.000000
vn 0.000000 0.000000 1.000000
vn 0.000000 0.000000 1.000000
vn 0.000000 0.000000 1.000000

g polygon1
s 1
usemtl mat1
f 53/53/53 54/54/54 55/55/55
f 53/53/53 56/56/56 54/54/54
f 57/57/57 58/58/58 59/59/59
f 57/57/57 60/60/60 58/58/58
f 56/56/56 61/61/61 54/54/54
f 56/56/56 62/62/62 61/61/61
f 60/60/60 63/63/63 58/58/58
f 60/60/60 64/64/64 63/63/63
f 62/62/62 65/65/65 61/61/61
f 62/62/62 66/66/66 65/65/65
f 64/64/64 67/67/67 63/63/63
f 64/64/64 68/68/68 67/67/67
f 66/66/66 69/69/69 65/65/65
f 66/66/66 70/70/70 69/69/69
f 68/68/68 71/71/71 67/67/67
f 68/68/68 72/72/72 71/71/71
f 70/70/70 73/73/73 69/69/69
f 70/70/70 74/74/74 73/73/73
f 72/72/72 75/75/75 71/71/71
f 72/72/72 76/76/76 75/75/75
f 77/77/77 74/74/74 78/78/78
f 77/77/77 73/73/73 74/74/74
f 79/79/79 76/76/76 80/80/80
f 79/79/79 75/75/75 76/76/76

v 0.000000 -5.633461 0.000000
v 3.000000 -12.646244 0.000000
v 2.050000 -5.633461 0.000000
v 0.000000 -12.646244 0.000000
v -2.050000 -5.633461 0.000000
v 0.000000 -12.646244 0.000000
v 0.000000 -5.633461 0.000000
v -3.000000 -12.646244 0.000000
v 3.000000 -300.000000 0.000000
v 0.000000 -300.000000 0.000000
v 0.000000 -300.000000 0.000000
v -3.000000 -300.000000 0.000000
v 3.000000 -600.000000 0.000000
v 0.000000 -600.000000 0.000000
v 0.000000 -600.000000 0.000000
v -3.000000 -600.000000 0.000000
v 3.000000 -900.000000 0.000000
v 0.000000 -900.000000 0.000000
v 0.000000 -900.000000 0.000000
v -3.000000 -900.000000 0.000000
v 3.000000 -1200.000000 0.000000
v 0.000000 -1200.000000 0.000000
v 0.000000 -1200.000000 0.000000
v -3.000000 -1200.000000 0.000000
v 3.000000 -1500.000000 0.000000
v 0.000000 -1500.000000 0.000000
v 0.000000 -1500.000000 0.000000
v -3.000000 -1500.000000 0.000000

vt 10.209785 0.000932
vt 9.928324 0.999068
vt 10.209784 0.999068
vt 9.928329 0.000932
vt 0.122623 0.996723
vt -0.022757 0.003277
vt 0.122623 0.003277
vt -0.022757 0.996723
vt 8.140618 0.999068
vt 8.140623 0.000932
vt -3.050226 0.003277
vt -3.050226 0.996723
vt 6.352914 0.999068
vt 6.352914 0.000932
vt -6.032184 0.003277
vt -6.032184 0.996723
vt 4.565209 0.999068
vt 4.565209 0.000932
vt -9.014140 0.003277
vt -9.014140 0.996723
vt 2.777500 0.999068
vt 2.777500 0.000932
vt -11.996096 0.003277
vt -11.996096 0.996723
vt 0.995703 0.999068
vt 0.995703 0.000932
vt -14.978052 0.003277
vt -14.978052 0.996723

vn 0.000000 0.000000 1.000000
vn 0.000000 0.000000 1.000000
vn 0.000000 0.000000 1.000000
vn 0.000000 0.000000 1.000000
vn 0.000000 0.000000 1.000000
vn 0.000000 0.000000 1.000000
vn 0.000000 0.000000 1.000000
vn 0.000000 0.000000 1.000000
vn 0.000000 0.000000 1.000000
vn 0.000000 0.000000 1.000000
vn 0.000000 0.000000 1.000000
vn 0.000000 0.000000 1.000000
vn 0.000000 0.000000 1.000000
vn 0.000000 0.000000 1.000000
vn 0.000000 0.000000 1.000000
vn 0.000000 0.000000 1.000000
vn 0.000000 0.000000 1.000000
vn 0.000000 0.000000 1.000000
vn 0.000000 0.000000 1.000000
vn 0.000000 0.000000 1.000000
vn 0.000000 0.000000 1.000000
vn 0.000000 0.000000 1.000000
vn 0.000000 0.000000 1.000000
vn 0.000000 0.000000 1.000000
vn 0.000000 0.000000 1.000000
vn 0.000000 0.000000 1.000000
vn 0.000000 0.000000 1.000000
vn 0.000000 0.000000 1.000000

g polygon2
s 1
usemtl mat1
f 81/81/81 82/82/82 83/83/83
f 81/81/81 84/84/84 82/82/82
f 85/85/85 86/86/86 87/87/87
f 85/85/85 88/88/88 86/86/86
f 84/84/84 89/89/89 82/82/82
f 84/84/84 90/90/90 89/89/89
f 88/88/88 91/91/91 86/86/86
f 88/88/88 92/92/92 91/91/91
f 90/90/90 93/93/93 89/89/89
f 90/90/90 94/94/94 93/93/93
f 92/92/92 95/95/95 91/91/91
f 92/92/92 96/96/96 95/95/95
f 94/94/94 97/97/97 93/93/93
f 94/94/94 98/98/98 97/97/97
f 96/96/96 99/99/99 95/95/95
f 96/96/96 100/100/100 99/99/99
f 98/98/98 101/101/101 97/97/97
f 98/98/98 102/102/102 101/101/101
f 100/100/100 103/103/103 99/99/99
f 100/100/100 104/104/104 103/103/103
f 105/105/105 102/102/102 106/106/106
f 105/105/105 101/101/101 102/102/102
f 107/107/107 104/104/104 108/108/108
f 107/107/107 103/103/103 104/104/104

v -1.159111 -11.093330 0.000000
v -1.600532 -12.646244 0.000000
v -1.200000 -12.646244 0.000000
v -1.545994 -10.575005 0.000000
v -1.039230 -9.646244 0.000000
v -1.386101 -8.644917 0.000000
v -0.848528 -8.403603 0.000000
v -1.131747 -6.987513 0.000000
v -0.600000 -7.450092 0.000000
v -0.800266 -5.715740 0.000000
v -0.310583 -6.850691 0.000000
v -0.414248 -4.916274 0.000000
v 0.000000 -6.646245 0.000000
v 0.000000 -4.643590 -0.000001
v 0.310583 -6.850691 0.000000
v 0.414248 -4.916274 0.000000
v 0.600000 -7.450093 0.000000
v 0.800266 -5.715742 0.000000
v 0.848528 -8.403605 0.000000
v 1.131747 -6.987513 0.000000
v 1.039230 -9.646245 0.000000
v 1.386101 -8.644918 -0.000001
v 1.159111 -11.093330 0.000000
v 1.545994 -10.575005 0.000000
v 1.200000 -12.646244 0.000000
v 1.600532 -12.646244 0.000000
v 2.897561 -8.764249 0.000000
v 2.999777 -12.646244 0.000000
v 2.597883 -5.146804 0.000001
v 2.121162 -2.040435 0.000000
v 1.499888 0.343167 -0.000001
v 0.776399 1.841560 -0.000001
v 0.000000 2.352638 0.000001
v -0.776399 1.841560 -0.000001
v -1.499888 0.343170 0.000000
v -2.121162 -2.040430 0.000000
v -2.597883 -5.146802 0.000001
v -2.897562 -8.764248 0.000000
v -2.999777 -12.646244 0.000000
v 1.601251 -1500.000000 0.000000
v 1.200000 -1200.000000 0.000000
v 1.200000 -1500.000000 0.000000
v 1.601251 -1200.000000 0.000000
v 2.991162 -1500.000000 0.000000
v 2.991162 -1200.000000 0.000000
v -1.601258 -1500.000000 0.000000
v -2.991168 -1200.000000 0.000000
v -2.991168 -1500.000000 0.000000
v -1.601258 -1200.000000 0.000000
v -1.200000 -1500.000000 0.000000
v -1.200000 -1200.000000 0.000000
v 1.200000 -899.999939 0.000000
v 1.601251 -899.999939 0.000000
v 2.991162 -899.999939 0.000000
v -2.991168 -899.999939 0.000000
v -1.601258 -899.999939 0.000000
v -1.200000 -899.999939 0.000000
v 1.200000 -600.000000 0.000000
v 1.601254 -600.000000 0.000000
v 2.991165 -600.000000 0.000000
v -2.991168 -600.000000 0.000000
v -1.601255 -600.000000 0.000000
v -1.200000 -600.000000 0.000000
v 1.200000 -300.000000 0.000000
v 1.601253 -300.000000 0.000000
v 2.991166 -300.000000 0.000000
v -2.991166 -300.000000 0.000000
v -1.601254 -300.000000 0.000000
v -1.200000 -300.000000 0.000000

vt 0.000000 1.000000
vt 0.000000 1.000000
vt 0.000000 1.000000
vt 0.000000 1.000000
vt 0.000000 1.000000
vt 0.000000 1.000000
vt 0.000000 1.000000
vt 0.000000 1.000000
vt 0.000000 1.000000
vt 0.000000 1.000000
vt 0.000000 1.000000
vt 0.000000 1.000000
vt 0.000000 1.000000
vt 0.000000 1.000000
vt 0.000000 1.000000
vt 0.000000 1.000000
vt 0.000000 1.000000
vt 0.000000 1.000000
vt 0.000000 1.000000
vt 0.000000 1.000000
vt 0.000000 1.000000
vt 0.000000 1.000000
vt 0.000000 1.000000
vt 0.000000 1.000000
vt 0.000000 1.000000
vt 0.000000 1.000000
vt 0.000000 1.000000
vt 0.000000 1.000000
vt 0.000000 1.000000
vt 0.000000 1.000000
vt 0.000000 1.000000
vt 0.000000 1.000000
vt 0.000000 1.000000
vt 0.000000 1.000000
vt 0.000000 1.000000
vt 0.000000 1.000000
vt 0.000000 1.000000
vt 0.000000 1.000000
vt 0.000000 1.000000
vt 0.000000 1.000000
vt 0.000000 1.000000
vt 0.000000 1.000000
vt 0.000000 1.000000
vt 0.000000 1.000000
vt 0.000000 1.000000
vt 0.000000 1.000000
vt 0.000000 1.000000
vt 0.000000 1.000000
vt 0.000000 1.000000
vt 0.000000 1.000000
vt 0.000000 1.000000
vt 0.000000 1.000000
vt 0.000000 1.000000
vt 0.000000 1.000000
vt 0.000000 1.000000
vt 0.000000 1.000000
vt 0.000000 1.000000
vt 0.000000 1.000000
vt 0.000000 1.000000
vt 0.000000 1.000000
vt 0.000000 1.000000
vt 0.000000 1.000000
vt 0.000000 1.000000
vt 0.000000 1.000000
vt 0.000000 1.000000
vt 0.000000 1.000000
vt 0.000000 1.000000
vt 0.000000 1.000000
vt 0.000000 1.000000

vn 0.000000 0.000000 1.000000
vn 0.000000 0.000000 1.000000
vn 0.000000 0.000000 1.000000
vn 0.000000 0.000000 1.000000
vn 0.000000 0.000000 1.000000
vn 0.000000 0.000000 1.000000
vn 0.000000 0.000000 1.000000
vn 0.000000 0.000000 1.000000
vn 0.000000 0.000000 1.000000
vn 0.000000 0.000000 1.000000
vn 0.000000 0.000000 1.000000
vn 0.000000 0.000000 1.000000
vn 0.000000 0.000000 1.000000
vn 0.000000 0.000000 1.000000
vn 0.000000 0.000000 1.000000
vn 0.000000 0.000000 1.000000
vn 0.000000 0.000000 1.000000
vn 0.000000 0.000000 1.000000
vn 0.000000 0.000000 1.000000
vn 0.000000 0.000000 1.000000
vn 0.000000 0.000000 1.000000
vn 0.000000 0.000000 1.000000
vn 0.000000 0.000000 1.000000
vn 0.000000 0.000000 1.000000
vn 0.000000 0.000000 1.000000
vn 0.000000 0.000000 1.000000
vn 0.000000 0.000000 1.000000
vn 0.000000 0.000000 1.000000
vn 0.000000 0.000000 1.000000
vn 0.000000 0.000000 1.000000
vn 0.000000 0.000000 1.000000
vn 0.000000 0.000000 1.000000
vn 0.000000 0.000000 1.000000
vn 0.000000 0.000000 1.000000
vn 0.000000 0.000000 1.000000
vn 0.000000 0.000000 1.000000
vn 0.000000 0.000000 1.000000
vn 0.000000 0.000000 1.000000
vn 0.000000 0.000000 1.000000
vn 0.000000 0.000000 1.000000
vn 0.000000 0.000000 1.000000
vn 0.000000 0.000000 1.000000
vn 0.000000 0.000000 1.000000
vn 0.000000 0.000000 1.000000
vn 0.000000 0.000000 1.000000
vn 0.000000 0.000000 1.000000
vn 0.000000 0.000000 1.000000
vn 0.000000 0.000000 1.000000
vn 0.000000 0.000000 1.000000
vn 0.000000 0.000000 1.000000
vn 0.000000 0.000000 1.000000
vn 0.000000 0.000000 1.000000
vn 0.000000 0.000000 1.000000
vn 0.000000 0.000000 1.000000
vn 0.000000 0.000000 1.000000
vn 0.000000 0.000000 1.000000
vn 0.000000 0.000000 1.000000
vn 0.000000 0.000000 1.000000
vn 0.000000 0.000000 1.000000
vn 0.000000 0.000000 1.000000
vn 0.000000 0.000000 1.000000
vn 0.000000 0.000000 1.000000
vn 0.000000 0.000000 1.000000
vn 0.000000 0.000000 1.000000
vn 0.000000 0.000000 1.000000
vn 0.000000 0.000000 1.000000
vn 0.000000 0.000000 1.000000
vn 0.000000 0.000000 1.000000
vn 0.000000 0.000000 1.000000

g polygon3
s 1
usemtl mat3
f 109/109/109 110/110/110 111/111/111
f 109/109/109 112/112/112 110/110/110
f 113/113/113 112/112/112 109/109/109
f 113/113/113 114/114/114 112/112/112
f 115/115/115 114/114/114 113/113/113
f 115/115/115 116/116/116 114/114/114
f 117/117/117 116/116/116 115/115/115
f 117/117/117 118/118/118 116/116/116
f 119/119/119 118/118/118 117/117/117
f 119/119/119 120/120/120 118/118/118
f 121/121/121 120/120/120 119/119/119
f 121/121/121 122/122/122 120/120/120
f 123/123/123 122/122/122 121/121/121
f 123/123/123 124/124/124 122/122/122
f 125/125/125 124/124/124 123/123/123
f 125/125/125 126/126/126 124/124/124
f 127/127/127 126/126/126 125/125/125
f 127/127/127 128/128/128 126/126/126
f 129/129/129 128/128/128 127/127/127
f 129/129/129 130/130/130 128/128/128
f 131/131/131 130/130/130 129/129/129
f 131/131/131 132/132/132 130/130/130
f 133/133/133 132/132/132 131/131/131
f 133/133/133 134/134/134 132/132/132
f 135/135/135 134/134/134 136/136/136
f 135/135/135 132/132/132 134/134/134
f 137/137/137 132/132/132 135/135/135
f 137/137/137 130/130/130 132/132/132
f 138/138/138 130/130/130 137/137/137
f 138/138/138 128/128/128 130/130/130
f 139/139/139 128/128/128 138/138/138
f 139/139/139 126/126/126 128/128/128
f 140/140/140 126/126/126 139/139/139
f 140/140/140 124/124/124 126/126/126
f 141/141/141 124/124/124 140/140/140
f 141/141/141 122/122/122 124/124/124
f 142/142/142 122/122/122 141/141/141
f 142/142/142 120/120/120 122/122/122
f 143/143/143 120/120/120 142/142/142
f 143/143/143 118/118/118 120/120/120
f 144/144/144 118/118/118 143/143/143
f 144/144/144 116/116/116 118/118/118
f 145/145/145 116/116/116 144/144/144
f 145/145/145 114/114/114 116/116/116
f 146/146/146 114/114/114 145/145/145
f 146/146/146 112/112/112 114/114/114
f 147/147/147 112/112/112 146/146/146
f 147/147/147 110/110/110 112/112/112
f 148/148/148 149/149/149 150/150/150
f 148/148/148 151/151/151 149/149/149
f 152/152/152 151/151/151 148/148/148
f 152/152/152 153/153/153 151/151/151
f 154/154/154 155/155/155 156/156/156
f 154/154/154 157/157/157 155/155/155
f 158/158/158 157/157/157 154/154/154
f 158/158/158 159/159/159 157/157/157
f 151/151/151 160/160/160 149/149/149
f 151/151/151 161/161/161 160/160/160
f 153/153/153 161/161/161 151/151/151
f 153/153/153 162/162/162 161/161/161
f 157/157/157 163/163/163 155/155/155
f 157/157/157 164/164/164 163/163/163
f 159/159/159 164/164/164 157/157/157
f 159/159/159 165/165/165 164/164/164
f 161/161/161 166/166/166 160/160/160
f 161/161/161 167/167/167 166/166/166
f 162/162/162 167/167/167 161/161/161
f 162/162/162 168/168/168 167/167/167
f 164/164/164 169/169/169 163/163/163
f 164/164/164 170/170/170 169/169/169
f 165/165/165 170/170/170 164/164/164
f 165/165/165 171/171/171 170/170/170
f 167/167/167 172/172/172 166/166/166
f 167/167/167 173/173/173 172/172/172
f 168/168/168 173/173/173 167/167/167
f 168/168/168 174/174/174 173/173/173
f 170/170/170 175/175/175 169/169/169
f 170/170/170 176/176/176 175/175/175
f 171/171/171 176/176/176 170/170/170
f 171/171/171 177/177/177 176/176/176
f 173/173/173 133/133/133 172/172/172
f 173/173/173 134/134/134 133/133/133
f 174/174/174 134/134/134 173/173/173
f 174/174/174 136/136/136 134/134/134
f 176/176/176 147/147/147 175/175/175
f 176/176/176 110/110/110 147/147/147
f 177/177/177 110/110/110 176/176/176
f 177/177/177 111/111/111 110/110/110

